<svg xmlns="http://www.w3.org/2000/svg" viewBox="0 0 722.45 179.78"><defs><style>.cls-1{fill:#45ad4e;}</style></defs><g id="Слой_2" data-name="Слой 2"><g id="Слой_1-2" data-name="Слой 1"><g id="Лого"><path class="cls-1" d="M.2,93.07C.89,74.56-3,54.81,7,38.17,23.66,8.85,63.93,3.83,87.31,28.08c1.17,1.05,2.35,0,3.22-1,2.75-2.93,6.11-5.05,9.44-7.25a49.91,49.91,0,0,1,47.17-2.75c16.3,7.53,28.06,23.83,29.6,41.78,1,21.75.12,43.55.39,65.32,1.14,10.1-10,19.43-19.41,14.11-6.25-2.84-7.61-9.75-7.51-16,.06-19.92,0-39.84,0-59.76-.77-25.08-36.05-32.17-46.07-9-1.9,3.55-2.28,7.41-2.28,11.34q0,29.37,0,58.73c-.07,4.12-.72,8.46-3.52,11.63-6.55,8.28-21,4.18-22.83-6-1.49-21.94-.23-44.07-.61-66.08.88-19.6-25-31.63-39.33-18.18a21.56,21.56,0,0,0-8.49,16.65c-.08,20.67,0,41.36,0,62,1.44,15.09-17.86,22.57-25.33,8.93a12.55,12.55,0,0,1-1.61-7c.06-10.84,0-21.69,0-32.54Z"/><path class="cls-1" d="M503.65,52.81c-1,18.1,2.84,37.09-3.29,54.47-7.43,19-26.26,32-46.57,32.65-30.91.74-56.62-28.67-51.13-59.22,3.54-28.6,35-49.68,62.74-41.37,6.89.79,12.56,7.86,11.82,0,0-8.48,0-17,0-25.43a12.75,12.75,0,0,1,5.31-11.17c6-5.17,16-2.53,19.55,4.39a13.22,13.22,0,0,1,1.64,6.55c-.07,13.05,0,26.1,0,39.16Zm-74.76,36c-.9,11.16,8,21.23,18.49,23.73,17.74,4.72,35.52-14.82,28.29-31.93C466.15,54.85,428.47,61.55,428.89,88.77Z"/><path class="cls-1" d="M722.35,109.78V164.2a13.79,13.79,0,0,1-3.29,10.57c-5,7.33-16.88,6.3-21.47-1-4.48-6.88-1.28-23.87-2.21-32.82.17-2.4-.27-5-3.11-3.09-17.94,8.26-40.61,4.9-55.11-8.61-11-9.31-16.48-23.93-17-38.08-.06-12.2,0-24.41,0-36.62A14.77,14.77,0,0,1,631.39,40.1c6.48-1.34,13.54,3.57,15.09,9.91,1.21,13.58.34,27.28.55,40.91a22.77,22.77,0,0,0,2.37,10.55c4.73,11.52,18.67,16.18,30.15,12.61,9.19-3.48,16.15-12.75,15.83-22.71,0-11.52,0-23.05,0-34.58-.73-6.48,2.07-12.63,8-15.66,7.93-4.23,16.93,2.35,18.9,10.17.09,19.49,0,39,0,58.48Z"/><path class="cls-1" d="M611.48,106.18c-1,9.16,2.93,22.56-3.86,29.39a12.64,12.64,0,0,1-16.2,2.22,16.23,16.23,0,0,1-4.43-4.12c-2.28-1.56-7.39,2.84-10.17,3.39-5.05,2.09-10.55,2.46-15.91,2.92-37.17-.21-62.86-40.13-45.8-73.65,14.66-31.66,58.71-38.59,82.3-12.83,14.79,15,14.61,33.11,14.07,52.68ZM536.71,88.61c-1,12,9.61,23.41,21.43,24.39,14.54,2,28-11.37,26.79-25.87C584,70,563.53,57.89,548.68,67.7,541.53,71.85,535.84,80,536.71,88.61Z"/><path class="cls-1" d="M237,38c67.88,1.82,65.56,101.65-1.45,101.54-38.51-1.71-62.06-43.61-42.19-77C202.49,47.67,219.36,37.19,237,38ZM213.25,88.59c-.89,27.79,38.79,33.8,46.89,7.42,5.44-16.22-9.13-34.07-26.09-31.63C222.54,66,212.24,76.68,213.25,88.59Z"/><path class="cls-1" d="M395.85,106c-1.15,10.54,3.84,24.63-6.27,31.66-8.74,6-21.78-2.29-20.17-12.86,0-11.78-.08-23.55,0-35.33.38-13.28-11-25-24.26-25.3-15.74.2-26,14.14-24.61,29.26,0,10.34,0,20.67,0,31,.59,7.57-4.88,15.33-12.82,15.27-7.92.58-14.27-7.31-13.69-15,.06-12.7,0-25.41,0-38.12.36-11.05,4.82-21.62,11.54-30.31,20.85-25.83,61-24.47,80.44,2.27,10.64,13.65,10.17,31,9.75,47.42Z"/></g></g></g></svg>